<?xml version="1.0" standalone="no"?>
<!DOCTYPE svg PUBLIC "-//W3C//DTD SVG 20010904//EN"
 "http://www.w3.org/TR/2001/REC-SVG-20010904/DTD/svg10.dtd">
<svg version="1.0" xmlns="http://www.w3.org/2000/svg"
 width="1024.000000pt" height="1024.000000pt" viewBox="0 0 1024.000000 1024.000000"
 preserveAspectRatio="xMidYMid meet">

<rect width="100%" height="100%" fill="#FFFFFF" />

<g transform="translate(0.000000,1024.000000) scale(0.100000,-0.100000)"
fill="#000000" stroke="none">
<path d="M0 5120 l0 -5120 5120 0 5120 0 0 5120 0 5120 -5120 0 -5120 0 0
-5120z m5585 4239 c281 -35 658 -132 923 -235 166 -65 473 -217 633 -312 170
-101 404 -268 550 -392 269 -229 612 -632 787 -925 64 -107 260 -499 271 -542
25 -92 -22 -163 -107 -163 -67 0 -245 53 -364 109 -57 27 -146 63 -198 81 -52
19 -149 58 -215 88 -66 30 -203 85 -304 123 -101 38 -197 79 -212 90 -39 28
-45 58 -21 112 32 71 53 80 210 87 l135 5 -65 80 c-73 90 -134 149 -328 316
-262 224 -416 328 -715 479 -332 167 -752 293 -1141 340 -102 13 -189 29 -202
37 -45 28 -49 59 -44 321 l5 243 25 31 c54 64 79 65 377 27z m-753 -22 c21
-16 41 -39 45 -50 4 -12 6 -130 4 -262 -3 -260 -5 -271 -59 -299 -16 -8 -95
-22 -178 -31 -725 -77 -1393 -383 -1949 -891 -386 -353 -754 -953 -880 -1439
-46 -178 -97 -453 -111 -602 l-6 -68 191 3 191 3 25 -25 c47 -47 32 -102 -59
-215 -106 -132 -237 -326 -488 -721 -83 -130 -142 -158 -219 -105 -53 35 -115
118 -306 405 -93 140 -210 311 -260 380 -107 148 -113 160 -113 199 0 40 46
93 80 93 14 0 93 -4 175 -8 l151 -7 17 199 c21 236 38 358 78 557 41 203 68
293 150 497 205 509 534 996 913 1349 266 248 542 438 936 644 189 98 323 155
528 222 350 114 821 206 1032 202 66 -2 80 -6 112 -30z m-1631 -1496 c28 -28
29 -33 29 -123 0 -119 -11 -138 -79 -138 -71 0 -83 14 -92 106 -5 47 -4 94 2
116 19 71 88 90 140 39z m2214 -135 c245 -66 447 -163 676 -325 120 -86 355
-332 497 -522 111 -148 260 -549 281 -755 18 -182 -22 -503 -90 -714 -63 -193
-230 -477 -381 -644 -55 -62 -204 -185 -308 -256 -158 -108 -391 -209 -603
-264 -174 -45 -465 -78 -587 -66 -301 29 -566 128 -855 318 -190 125 -300 228
-446 422 -91 121 -121 170 -179 299 -98 217 -139 373 -160 606 -24 260 20 528
130 790 58 137 295 504 326 505 7 0 36 -26 65 -57 230 -244 510 -535 646 -672
90 -89 163 -170 163 -180 0 -9 -7 -48 -15 -86 -8 -39 -15 -115 -15 -170 0
-162 33 -252 128 -353 99 -106 241 -149 399 -123 91 15 156 47 229 113 132
121 184 405 103 557 -25 47 -24 59 5 67 39 10 108 -15 143 -52 41 -44 48 -79
48 -234 -1 -105 -4 -135 -24 -190 -40 -112 -91 -198 -144 -246 -98 -88 -274
-173 -358 -174 -32 0 -37 -4 -42 -27 -3 -16 -6 -156 -6 -313 -1 -157 -4 -359
-8 -449 l-6 -164 99 6 c230 14 451 72 693 181 233 106 327 178 493 376 160
191 250 360 312 585 56 204 69 298 69 485 0 191 -13 264 -73 424 -45 121 -165
365 -212 434 -17 25 -37 62 -44 82 -20 57 -38 50 -133 -48 -47 -50 -125 -117
-172 -150 -47 -32 -166 -124 -265 -204 -99 -79 -213 -164 -254 -188 -41 -24
-102 -70 -135 -102 -166 -163 -294 -262 -313 -243 -10 9 -8 1726 1 1749 7 17
15 18 100 13 55 -4 145 -21 222 -41z m-531 -268 c5 -214 3 -896 -3 -1241 l-1
-49 -41 54 c-23 29 -123 136 -223 238 -184 188 -290 301 -543 580 -78 86 -160
172 -184 191 l-43 35 46 42 c97 90 224 175 376 252 77 39 259 109 340 130 49
13 204 38 243 39 l27 1 6 -272z m-1576 -16 c10 -7 11 -57 4 -244 l-8 -236 -43
-47 c-76 -83 -175 -338 -230 -595 l-18 -85 -7 95 c-12 184 -25 1074 -15 1091
5 10 21 20 36 22 52 8 268 7 281 -1z m-631 -202 c18 -11 35 -31 39 -46 9 -35
-5 -263 -17 -286 -14 -26 -98 -25 -131 2 -23 18 -26 28 -32 127 -7 124 2 168
41 200 34 28 58 29 100 3z m5155 -361 c56 -28 61 -45 48 -152 -13 -110 -26
-129 -83 -125 -30 2 -45 10 -61 31 -18 25 -21 42 -21 136 0 148 14 161 117
110z m-5027 -139 c3 -5 6 -557 7 -1226 0 -1016 -2 -1218 -13 -1225 -16 -10
-193 -11 -259 -1 l-45 7 -3 1085 c-2 597 -4 1146 -5 1220 l-2 135 125 5 c69 3
139 7 157 8 17 1 35 -2 38 -8z m5168 -287 c5 -3 5 -148 2 -322 l-8 -316 -46
-50 c-26 -27 -60 -68 -76 -90 -16 -22 -50 -63 -76 -92 -25 -28 -59 -73 -74
-98 -24 -41 -27 -56 -23 -110 8 -134 124 -287 227 -301 27 -3 54 -10 61 -14
10 -6 14 -82 18 -314 l5 -305 -27 -11 c-30 -11 -218 -14 -280 -3 l-39 6 6 136
c3 75 2 517 -2 982 -4 466 -6 860 -3 877 4 27 9 31 41 35 43 6 282 -3 294 -10z
m-5797 -54 c16 -18 19 -37 19 -114 0 -85 -2 -96 -24 -119 -22 -23 -32 -26 -92
-26 -84 0 -89 7 -89 118 0 64 4 84 20 104 43 55 132 75 166 37z m6552 -53 c40
-21 84 -71 145 -166 30 -47 94 -142 143 -211 49 -69 132 -188 184 -264 52 -76
125 -179 162 -229 58 -78 68 -97 68 -132 0 -30 -7 -48 -25 -68 -28 -30 -15
-29 -217 -26 l-158 2 0 -34 c-4 -258 -22 -571 -38 -668 -41 -244 -164 -665
-262 -895 -199 -471 -433 -839 -770 -1213 -320 -355 -860 -718 -1370 -922
-315 -126 -616 -205 -1004 -266 -261 -40 -306 -42 -352 -13 -58 35 -59 40 -55
319 4 339 0 332 196 350 152 14 222 25 360 56 509 114 918 296 1289 572 306
228 517 438 704 700 155 216 273 422 382 668 191 428 270 784 270 1224 l0 125
-183 -3 c-173 -3 -184 -2 -210 18 -65 51 -42 124 99 315 48 66 141 201 205
300 142 218 229 341 288 407 61 68 97 81 149 54z m-1381 -171 c35 -25 46 -75
38 -180 -5 -65 -13 -103 -27 -126 -19 -31 -21 -31 -71 -26 -77 9 -87 27 -87
146 0 112 12 164 43 186 27 19 76 19 104 0z m-940 -19 l28 -24 0 -134 0 -133
-114 -3 c-139 -3 -155 4 -165 75 -3 26 -2 84 3 128 12 105 24 115 137 115 73
0 86 -3 111 -24z m-4096 -148 c0 -13 2 -57 2 -100 l2 -76 -40 32 c-75 61 -100
70 -212 71 -56 0 -104 3 -108 7 -4 4 -2 23 5 42 l11 36 162 3 c89 1 165 4 170
5 4 1 7 -8 8 -20z m5131 -303 c11 -4 13 -185 13 -1023 l0 -1017 -138 -3 c-76
-1 -145 2 -155 7 -18 9 -19 40 -27 473 -4 255 -9 712 -11 1016 l-3 552 154 0
c84 0 159 -2 167 -5z m-5141 -561 c7 -220 -1 -570 -13 -586 -11 -14 -33 -16
-169 -11 l-156 6 -5 190 c-3 104 -2 205 2 223 4 19 28 56 53 83 24 28 63 87
86 131 44 84 126 201 164 234 l22 18 6 -94 c4 -53 8 -140 10 -194z m3537 76
c30 -28 33 -47 30 -195 l-3 -130 -110 -3 c-79 -2 -115 1 -128 10 -26 19 -37
81 -31 163 12 146 36 175 148 175 59 0 76 -4 94 -20z m-2640 -63 c8 -6 24 -32
38 -59 40 -80 26 -206 -26 -223 -11 -4 -39 -4 -61 0 -61 11 -72 34 -67 156 3
96 4 102 31 125 29 25 55 25 85 1z m3639 -353 c47 -30 53 -60 42 -200 -5 -71
-14 -140 -20 -153 -9 -22 -14 -23 -69 -19 -33 2 -63 8 -67 12 -10 10 -29 254
-23 289 3 15 18 43 34 63 30 38 54 40 103 8z m-3511 -316 c-4 -128 -9 -435
-12 -683 -3 -340 -7 -451 -17 -457 -17 -11 -265 -10 -286 2 -17 9 -18 43 -15
681 2 447 7 675 14 679 5 3 80 7 167 8 l156 3 -7 -233z m388 -12 c67 -28 80
-82 50 -200 -20 -78 -27 -86 -78 -86 -71 0 -80 13 -84 127 -7 159 20 197 112
159z m-1535 -54 c18 -14 23 -31 28 -92 6 -91 -5 -125 -49 -146 -30 -14 -37
-14 -70 0 -51 22 -61 45 -56 136 4 97 20 120 83 120 26 0 51 -7 64 -18z m4159
-98 c24 -16 25 -18 20 -124 -3 -60 -12 -120 -19 -136 -12 -25 -21 -29 -61 -32
-43 -3 -48 -1 -61 25 -21 40 -31 172 -17 221 18 70 73 88 138 46z m1526 -30
c13 -12 16 -40 16 -138 l0 -122 -35 -17 c-46 -22 -63 -21 -102 3 l-33 20 1
102 c1 131 7 151 44 159 54 12 93 9 109 -7z m-919 -10 c20 -5 20 -14 21 -512
0 -348 -3 -509 -10 -514 -13 -9 -201 -10 -273 -2 l-53 7 -2 513 -3 514 150 0
c83 0 159 -3 170 -6z m-5369 -142 c72 -33 155 -74 185 -90 30 -17 92 -47 139
-67 99 -43 222 -98 370 -165 58 -26 137 -60 175 -76 39 -15 80 -38 93 -51 31
-31 29 -76 -4 -102 -30 -24 -151 -65 -254 -86 -109 -22 -105 -18 -69 -72 141
-208 382 -491 552 -649 282 -263 664 -506 1007 -642 315 -124 506 -174 864
-227 170 -24 203 -36 230 -78 23 -35 25 -537 2 -572 -28 -43 -71 -58 -145 -51
-187 19 -540 80 -674 117 -393 106 -647 210 -1022 417 -181 99 -505 332 -678
486 -174 155 -437 447 -551 612 -285 409 -538 969 -540 1191 -1 80 13 109 75
151 47 33 87 26 245 -46z m1145 -22 c4 -14 7 -64 8 -113 l1 -87 -32 -20 c-47
-29 -75 -25 -115 15 l-34 34 7 83 c9 117 11 120 92 116 61 -3 67 -5 73 -28z
m1535 -74 l33 -33 -6 -119 c-7 -156 -13 -168 -80 -172 -50 -3 -54 -1 -73 30
-29 48 -29 231 0 288 18 35 25 40 56 40 28 0 44 -8 70 -34z m-412 -188 c-5
-101 -7 -353 -6 -562 l3 -379 -154 5 c-84 3 -159 8 -165 12 -9 5 -12 142 -12
541 0 293 3 540 6 549 5 14 30 16 171 16 l165 0 -8 -182z m1961 117 c28 -27
29 -42 16 -219 -6 -73 -13 -111 -22 -117 -8 -5 -36 -8 -64 -7 -46 3 -51 6 -68
38 -15 29 -17 56 -15 163 3 122 4 130 27 148 34 28 96 25 126 -6z m575 -71
l65 -6 -2 -526 c-1 -487 -3 -526 -19 -535 -17 -10 -299 -5 -310 5 -6 6 -19
784 -15 943 1 72 6 112 14 117 14 9 177 10 267 2z m-1609 -110 c23 -25 24 -31
21 -137 -2 -62 -7 -130 -11 -152 l-6 -40 -55 -3 c-81 -4 -92 7 -98 106 -6 104
4 180 28 220 17 27 26 32 58 32 28 0 45 -7 63 -26z m-409 -713 c-1 -267 -5
-487 -8 -490 -9 -10 -134 -8 -226 2 -85 10 -87 11 -94 39 -7 33 5 892 13 921
4 16 18 17 161 15 l157 -3 -3 -484z m3008 423 c6 -14 10 -71 10 -126 0 -120
-10 -138 -75 -138 -47 0 -81 25 -91 66 -8 31 0 197 10 213 4 6 35 11 72 11 60
0 65 -2 74 -26z m-1450 -473 c0 -304 -3 -462 -10 -466 -6 -4 -35 -9 -64 -12
-48 -5 -53 -8 -48 -27 3 -11 8 -26 13 -31 4 -6 11 -60 15 -121 l7 -110 -29
-23 c-36 -28 -94 -24 -130 10 -20 19 -24 32 -24 78 1 82 15 139 40 166 32 34
21 48 -46 60 l-59 10 0 170 c0 94 -4 285 -9 426 -5 141 -6 273 -2 293 l7 36
169 0 170 0 0 -459z m-629 400 l29 -29 0 -127 c0 -112 -2 -130 -21 -156 -17
-24 -28 -29 -60 -29 -86 0 -109 40 -109 189 0 114 11 148 55 167 47 20 74 17
106 -15z m-408 -146 c-1 -16 -3 -226 -5 -465 l-3 -435 -32 -9 c-38 -11 -43
-26 -43 -123 0 -66 -2 -74 -25 -89 -32 -21 -90 -13 -119 16 -16 15 -21 38 -26
102 l-5 83 -37 18 -38 17 0 453 c0 250 3 457 7 461 4 3 79 5 167 4 l161 -3 -2
-30z m-1658 -72 c4 -10 10 -59 12 -109 l6 -90 -33 -27 c-17 -15 -41 -27 -53
-27 -26 0 -60 26 -77 59 -16 31 -4 176 17 196 22 22 119 20 128 -2z m3646
-113 c4 -14 7 -70 8 -124 1 -79 -2 -103 -16 -118 -25 -27 -85 -24 -122 8 l-31
26 0 107 c0 72 4 111 12 119 8 8 36 12 77 10 60 -3 66 -5 72 -28z m-1484 -173
c4 -5 8 -156 8 -335 l0 -327 -40 -20 c-32 -15 -61 -20 -138 -20 -96 0 -99 1
-123 28 l-24 28 0 330 0 331 154 -4 c85 -1 158 -7 163 -11z m-1643 -120 c14
-10 21 -36 28 -110 11 -109 8 -120 -49 -143 -37 -16 -87 -3 -103 26 -11 20
-14 198 -4 224 8 20 102 22 128 3z m2593 -117 c8 -16 13 -67 13 -137 0 -104
-1 -113 -22 -127 -36 -25 -82 -20 -117 13 -31 29 -31 29 -31 135 0 94 2 108
21 127 16 16 30 19 72 17 43 -3 53 -7 64 -28z m-2089 -158 c21 -16 25 -31 32
-117 5 -59 5 -106 -1 -116 -12 -22 -73 -43 -105 -35 -13 4 -34 21 -45 39 -17
27 -19 42 -14 104 9 103 17 126 46 134 41 12 63 9 87 -9z"/>
<path d="M5534 7216 c-49 -22 -66 -70 -54 -153 5 -37 10 -89 10 -115 0 -69 24
-83 132 -75 51 3 84 10 89 19 5 7 9 47 9 88 0 41 4 101 10 133 10 66 8 77 -21
95 -31 20 -139 25 -175 8z"/>
<path d="M3698 6059 c-58 -30 -71 -65 -63 -168 4 -47 12 -94 17 -103 16 -32
63 -48 141 -48 112 0 122 11 130 142 8 130 1 158 -44 180 -46 24 -133 23 -181
-3z"/>
<path d="M4228 5219 c-15 -6 -37 -25 -48 -44 -25 -41 -36 -145 -21 -201 17
-64 37 -75 128 -77 106 -1 123 9 123 76 0 29 5 79 10 112 12 72 0 109 -41 130
-32 17 -110 18 -151 4z"/>
</g>
</svg>
