<?xml version="1.0" standalone="no"?>
<!DOCTYPE svg PUBLIC "-//W3C//DTD SVG 20010904//EN"
 "http://www.w3.org/TR/2001/REC-SVG-20010904/DTD/svg10.dtd">
<svg version="1.0" xmlns="http://www.w3.org/2000/svg"
 width="1024.000000pt" height="1024.000000pt" viewBox="0 0 1024.000000 1024.000000"
 preserveAspectRatio="xMidYMid meet">

<rect width="100%" height="100%" fill="#44403c" />

<g transform="translate(0.000000,1024.000000) scale(0.100000,-0.100000)"
fill="#FFFFFF" stroke="none">
<path d="M6995 9556 c-56 -24 -65 -51 -64 -188 0 -68 4 -174 7 -236 l7 -112
-30 0 c-16 0 -51 6 -76 14 -79 24 -438 95 -569 112 -192 25 -670 30 -885 10
-761 -74 -1477 -314 -2016 -676 -396 -267 -768 -710 -985 -1175 -61 -131 -164
-452 -164 -512 0 -23 31 -43 65 -43 8 0 58 57 110 128 123 163 270 320 454
483 175 156 281 237 461 351 122 78 353 201 455 243 221 91 580 204 810 254
123 27 394 67 545 82 154 15 691 15 860 -1 260 -23 550 -67 833 -125 64 -14
119 -25 121 -25 3 0 6 -116 8 -257 3 -233 5 -261 22 -290 37 -61 97 -69 172
-22 27 18 164 117 304 222 140 105 350 261 465 347 116 86 263 196 327 243 64
47 125 98 134 112 20 31 14 87 -13 118 -32 35 -239 197 -573 447 -179 133
-363 273 -410 310 -240 190 -299 219 -375 186z"/>
<path d="M3267 9465 c-157 -15 -194 -25 -228 -61 -32 -35 -34 -119 -3 -161 41
-55 60 -59 167 -39 52 10 151 23 220 30 75 7 132 18 142 26 46 38 58 115 26
164 -40 60 -73 64 -324 41z"/>
<path d="M2644 9231 c-101 -49 -269 -145 -311 -177 -28 -21 -33 -31 -33 -67 0
-52 28 -100 71 -123 42 -21 76 -11 194 57 49 28 119 66 155 84 72 36 124 76
141 106 14 26 -5 90 -37 129 -36 42 -79 40 -180 -9z"/>
<path d="M2077 8780 c-33 -26 -220 -258 -269 -334 -45 -69 -47 -90 -13 -136
55 -74 111 -85 168 -31 16 14 68 77 115 139 48 62 106 138 130 169 23 30 42
66 42 79 0 57 -69 134 -119 134 -16 0 -40 -9 -54 -20z"/>
<path d="M1642 8063 c-44 -21 -63 -63 -101 -211 -46 -185 -53 -239 -36 -273
19 -35 43 -49 90 -49 83 0 119 46 149 192 9 42 27 113 42 158 28 90 26 126 -9
157 -50 46 -83 52 -135 26z"/>
<path d="M2027 7199 c-127 -19 -258 -90 -372 -204 -84 -84 -131 -162 -157
-262 -10 -38 -12 -437 -10 -1833 2 -990 7 -1822 12 -1868 11 -95 31 -147 101
-253 111 -170 293 -279 569 -341 l105 -23 2335 0 2335 0 116 31 c200 55 348
142 434 256 146 195 181 406 159 958 l-7 155 -183 1 -183 1 6 -57 c11 -105
-26 -160 -90 -137 -40 14 -57 45 -64 121 l-6 66 -366 1 c-601 1 -881 12 -974
38 -177 49 -297 118 -412 236 -94 96 -133 158 -178 281 -31 87 -32 93 -32 254
0 175 9 227 59 352 41 102 88 170 181 263 77 78 105 98 195 143 175 88 162 86
877 87 l623 0 0 46 c0 76 10 108 42 130 24 18 33 19 57 10 38 -16 59 -57 67
-132 l6 -64 194 3 194 3 0 177 c0 202 -10 283 -45 388 -77 230 -184 364 -355
447 -52 25 -138 57 -190 70 -86 23 -119 25 -350 28 -562 8 -3982 -2 -4261 -12
-359 -13 -418 -7 -534 50 -48 24 -98 58 -125 86 -39 40 -45 51 -45 89 0 34 7
53 31 83 35 43 162 115 237 135 30 7 53 20 59 32 10 19 47 151 48 169 0 8 -24
8 -103 -4z m-243 -769 c19 -17 40 -48 47 -68 6 -20 22 -51 35 -69 34 -45 30
-67 -16 -104 l-40 -33 2 -1515 c3 -1402 4 -1519 20 -1561 10 -25 22 -86 27
-137 8 -72 17 -106 46 -162 63 -125 -11 -72 -114 83 -71 104 -99 172 -113 264
-16 110 -16 3265 0 3305 16 38 60 37 106 -3z m438 -260 c35 -39 35 -54 -1 -91
-28 -28 -34 -29 -116 -29 -86 0 -88 1 -121 34 -42 42 -44 76 -6 106 25 21 35
22 122 17 90 -5 96 -7 122 -37z m472 -1 c34 -41 33 -73 -4 -111 l-31 -30 -101
4 c-98 4 -101 4 -129 36 -38 42 -37 63 6 101 35 30 38 31 134 31 98 0 99 0
125 -31z m480 0 c34 -40 33 -74 -3 -110 -28 -28 -33 -29 -121 -29 -104 0 -141
13 -160 59 -10 25 -9 34 6 60 25 42 47 50 156 50 96 1 96 1 122 -30z m479 3
c32 -34 35 -76 7 -112 -17 -23 -26 -25 -118 -28 -74 -3 -107 0 -129 11 -56 30
-67 93 -23 137 17 17 34 20 128 20 106 0 109 -1 135 -28z m468 15 c8 -7 23
-24 33 -39 15 -23 16 -30 3 -61 -8 -19 -21 -38 -28 -43 -20 -12 -214 -7 -239
6 -26 14 -49 65 -42 92 2 10 16 27 30 38 21 17 40 20 126 20 64 -1 107 -5 117
-13z m502 -15 c34 -35 34 -72 1 -111 -26 -31 -27 -31 -122 -31 -79 0 -103 4
-130 20 -43 27 -57 62 -37 100 23 44 41 49 156 50 102 0 106 -1 132 -28z m482
3 c17 -16 25 -35 25 -57 -1 -67 -41 -88 -165 -88 -80 0 -86 2 -120 31 -46 40
-47 77 -4 113 29 24 37 26 135 26 98 0 107 -2 129 -25z m459 19 c9 -3 25 -21
36 -39 19 -31 20 -36 6 -69 -8 -19 -23 -39 -34 -45 -12 -6 -63 -11 -115 -11
-81 0 -98 3 -121 21 -55 43 -52 107 4 136 26 13 195 18 224 7z m509 -20 c15
-14 29 -34 32 -45 8 -25 -21 -78 -48 -88 -17 -7 -170 -8 -220 -2 -17 2 -57 55
-57 76 0 35 36 73 73 78 17 2 69 5 113 5 75 2 83 0 107 -24z m467 9 c16 -9 34
-27 41 -40 11 -21 10 -29 -6 -60 -25 -45 -47 -53 -156 -53 -87 0 -92 1 -120
29 -50 50 -28 121 41 134 66 12 173 7 200 -10z m420 -39 c90 -43 152 -99 191
-176 33 -65 37 -113 12 -140 -37 -41 -104 -4 -148 81 -41 81 -98 121 -172 121
-27 0 -43 8 -69 34 -40 40 -42 59 -9 91 37 38 101 34 195 -11z m-4320 -2040
c81 -19 119 -40 252 -142 211 -162 517 -535 518 -630 0 -29 -53 -62 -102 -62
-49 0 -88 34 -138 120 -39 67 -150 196 -306 356 -101 104 -200 155 -344 179
-80 13 -99 20 -119 42 -38 43 -14 120 44 144 32 13 125 10 195 -7z m-35 -465
c72 -39 190 -136 232 -190 79 -104 94 -165 48 -195 -23 -15 -27 -14 -77 9 -76
35 -314 213 -344 256 -13 19 -24 46 -24 59 0 26 17 63 34 74 22 15 92 8 131
-13z m4613 -194 c35 -30 46 -74 36 -153 -16 -130 -131 -141 -149 -13 -9 69 2
126 32 161 30 36 43 37 81 5z m-134 -371 c16 -15 21 -46 17 -94 -3 -32 -63
-95 -116 -120 -56 -27 -133 -40 -164 -28 -101 38 -90 129 20 169 31 12 78 36
105 55 53 38 111 46 138 18z m-4879 -104 c58 -36 58 -98 0 -136 -23 -15 -33
-16 -83 -4 -99 22 -162 65 -162 111 0 10 12 27 28 39 24 20 35 22 104 17 55
-4 88 -11 113 -27z m476 -11 c41 -44 42 -79 3 -119 -23 -24 -29 -25 -127 -22
-99 3 -103 4 -129 32 -34 37 -35 61 -4 97 20 23 35 29 88 34 131 12 138 12
169 -22z m481 -6 c34 -33 37 -77 6 -110 -20 -22 -29 -23 -139 -23 -115 0 -118
1 -138 26 -27 34 -27 74 -1 107 19 24 29 27 103 30 113 5 137 1 169 -30z m463
25 c27 -12 55 -54 55 -82 0 -8 -12 -28 -26 -45 l-26 -31 -110 0 -110 0 -29 31
c-43 46 -36 109 14 129 33 13 202 12 232 -2z m509 -19 c31 -37 33 -77 5 -113
-20 -25 -23 -26 -133 -26 -109 0 -113 1 -138 28 -35 36 -40 72 -15 106 17 23
69 33 174 35 79 1 82 0 107 -30z m495 5 c28 -36 27 -86 -3 -121 -24 -27 -25
-28 -132 -25 -102 3 -111 5 -136 30 -33 30 -37 76 -10 108 24 30 34 32 154 33
104 1 107 0 127 -25z m486 0 c31 -33 33 -82 5 -116 -18 -24 -27 -26 -122 -30
-120 -5 -141 0 -168 44 -27 45 -25 64 9 99 29 29 31 29 141 29 107 0 112 -1
135 -26z m479 -5 c33 -39 33 -69 0 -109 l-26 -31 -111 3 -111 3 -23 34 c-30
44 -29 62 3 100 l26 31 108 0 108 0 26 -31z m495 5 c25 -31 27 -64 6 -103 -19
-38 -30 -41 -146 -41 -111 0 -132 7 -154 50 -21 40 -19 54 11 89 l26 31 118 0
c116 0 119 -1 139 -26z m462 16 c27 -15 51 -65 43 -94 -3 -13 -16 -34 -29 -46
-22 -20 -33 -22 -132 -21 l-108 1 -27 32 c-16 18 -28 42 -28 53 0 21 25 64 44
77 17 12 215 9 237 -2z"/>
<path d="M2852 7080 c-137 -117 -206 -189 -260 -267 -12 -17 -22 -33 -22 -35
0 -2 44 0 98 4 142 10 3739 9 4062 -2 l276 -9 119 -44 c204 -76 257 -105 388
-205 96 -73 193 -219 258 -389 l24 -63 67 0 c58 0 67 3 73 20 3 11 7 93 7 182
1 121 -3 181 -15 231 -21 86 -74 213 -123 297 -42 72 -146 186 -211 231 -75
52 -217 118 -303 141 l-85 22 -1810 3 c-995 1 -1942 4 -2103 5 l-293 3 -147
-125z"/>
<path d="M2016 6929 c-65 -18 -102 -86 -72 -132 15 -21 55 -47 75 -47 7 0 36
179 29 184 -1 2 -16 -1 -32 -5z"/>
<path d="M7834 5819 c3 -34 6 -129 6 -211 l0 -150 128 7 c151 8 226 29 315 89
49 32 65 49 75 80 14 44 4 90 -30 138 -45 64 -203 108 -390 108 l-111 0 7 -61z"/>
<path d="M8420 5873 c0 -5 14 -33 32 -63 68 -120 68 -121 68 -202 0 -97 -13
-130 -77 -190 -53 -49 -96 -74 -184 -108 -139 -53 -96 -51 -1309 -49 -1243 1
-1135 7 -1279 -65 -182 -92 -304 -296 -318 -536 -7 -120 12 -202 70 -314 81
-156 227 -271 402 -315 76 -19 120 -20 860 -25 429 -3 922 -2 1095 3 357 10
383 14 592 106 129 57 167 87 230 183 82 126 80 107 76 724 -4 532 -4 544 -26
602 -30 80 -76 150 -126 190 -46 37 -106 71 -106 59z m-2319 -960 c76 -24 179
-126 204 -201 36 -112 3 -225 -92 -312 -80 -74 -132 -95 -228 -95 -90 1 -136
19 -206 82 -88 79 -123 225 -84 344 25 73 112 161 181 183 66 20 160 20 225
-1z"/>
<path d="M5935 4761 c-48 -20 -90 -103 -80 -155 10 -45 52 -102 86 -116 50
-21 109 -7 145 35 76 86 57 198 -39 234 -33 13 -83 13 -112 2z"/>
<path d="M7828 3484 c-4 -310 -7 -349 -29 -451 -13 -62 -20 -115 -16 -119 10
-10 62 41 98 98 54 83 61 122 69 388 8 248 22 379 42 391 15 9 -13 16 -93 24
l-67 7 -4 -338z"/>
<path d="M4730 1614 c-8 -2 -161 -8 -340 -14 -596 -19 -1080 -54 -1565 -111
-346 -40 -574 -94 -655 -154 -35 -26 -70 -72 -70 -92 0 -24 60 -80 117 -110
185 -98 844 -201 1713 -267 802 -62 2049 -40 2890 50 775 83 1183 181 1239
298 18 38 3 67 -57 113 -114 87 -546 168 -1247 233 -307 29 -1172 60 -1620 59
-214 -1 -397 -3 -405 -5z"/>
</g>
</svg>
