<svg width="16" height="20" viewBox="0 0 16 20" fill="#FFFFFF" xmlns="http://www.w3.org/2000/svg"><path d="M14.0742 0.5C15.1128 0.5 15.9505 1.40012 16 2.45937V19.5L14.0224 17.7005L12.9365 16.6413L11.7516 15.5345L12.2466 17.2801H1.87636C0.840664 17.2801 0 16.437 0 15.32V2.46334C0 1.40409 0.842144 0.502375 1.88005 0.502375H14.069L14.0742 0.5ZM9.55464 4.99904H9.53248L9.38328 5.15737C10.9146 5.63237 11.6556 6.37416 11.6556 6.37416C10.6686 5.84534 9.7792 5.58091 8.88976 5.47404C8.24712 5.36716 7.60442 5.42337 7.06146 5.47404H6.9137C6.5665 5.47404 5.82778 5.63237 4.8379 6.05591C4.49291 6.21663 4.29494 6.32191 4.29494 6.32191C4.29494 6.32191 5.03514 5.52866 6.66623 5.10513L6.5665 4.99825C6.5665 4.99825 5.33136 4.94759 3.99797 6.00366C3.99797 6.00366 2.66458 8.49266 2.66458 11.5611C2.66458 11.5611 3.4033 12.9386 5.42962 12.9909C5.42962 12.9909 5.7251 12.569 6.02429 12.1976C4.88665 11.8271 4.44342 11.0861 4.44342 11.0861C4.44342 11.0861 4.54241 11.1384 4.69089 11.2445H4.73522C4.75738 11.2445 4.76772 11.2564 4.77954 11.2682V11.273C4.79136 11.2856 4.8017 11.2967 4.82386 11.2967C5.06764 11.4044 5.31142 11.5105 5.51087 11.6134C5.85512 11.7734 6.29762 11.9325 6.84058 12.0378C7.52758 12.1446 8.31504 12.1961 9.21184 12.0378C9.65512 11.9309 10.0983 11.8264 10.5416 11.6142C10.8297 11.4559 11.1842 11.2975 11.5736 11.0307C11.5736 11.0307 11.1303 11.7717 9.94472 12.1423C10.1885 12.5111 10.532 12.9339 10.532 12.9339C12.559 12.8864 13.3465 11.5089 13.3908 11.5675C13.3908 8.50375 12.0501 6.01 12.0501 6.01C10.8422 5.04891 9.712 5.0125 9.51256 5.0125L9.55392 4.99666L9.55464 4.99904ZM9.67872 8.49266C10.1981 8.49266 10.617 8.96764 10.617 9.54953C10.617 10.1354 10.1958 10.6104 9.67872 10.6104C9.16168 10.6104 8.74056 10.1354 8.74056 9.55433C8.74208 8.96846 9.16384 8.49504 9.67872 8.49504V8.49266ZM6.32273 8.49266C6.83983 8.49266 7.25795 8.96764 7.25795 9.54953C7.25795 10.1354 6.83688 10.6104 6.31978 10.6104C5.80267 10.6104 5.3816 10.1354 5.3816 9.55433C5.3816 8.96846 5.80267 8.49504 6.31978 8.49504L6.32273 8.49266Z"></path></svg>