<svg width="18" height="18" viewBox="0 0 18 18" fill="#FFFFFF" xmlns="http://www.w3.org/2000/svg"><g><path fill-rule="evenodd" clip-rule="evenodd" d="M8.97467 0.5C4.2884 0.5 0.5 4.39583 0.5 9.21551C0.5 13.0681 2.92736 16.3293 6.29474 17.4835C6.71575 17.5703 6.86997 17.296 6.86997 17.0653C6.86997 16.8632 6.85609 16.1706 6.85609 15.449C4.49864 15.9686 4.00772 14.4101 4.00772 14.4101C3.62887 13.4 3.06752 13.1404 3.06752 13.1404C2.29593 12.6065 3.12372 12.6065 3.12372 12.6065C3.97962 12.6642 4.42874 13.5011 4.42874 13.5011C5.18628 14.8285 6.40698 14.4535 6.89807 14.2225C6.96815 13.6598 7.1928 13.2702 7.43132 13.0538C5.55108 12.8517 3.57284 12.1014 3.57284 8.75368C3.57284 7.80132 3.90937 7.02216 4.44261 6.41618C4.35848 6.19978 4.06376 5.30498 4.52692 4.10736C4.52692 4.10736 5.24248 3.87645 6.85592 5.00199C7.54669 4.81121 8.25907 4.71416 8.97467 4.71334C9.69024 4.71334 10.4197 4.81446 11.0933 5.00199C12.7069 3.87645 13.4224 4.10736 13.4224 4.10736C13.8856 5.30498 13.5907 6.19978 13.5066 6.41618C14.0539 7.02216 14.3765 7.80132 14.3765 8.75368C14.3765 12.1014 12.3983 12.8372 10.504 13.0538C10.8128 13.3279 11.0792 13.8473 11.0792 14.6699C11.0792 15.8386 11.0653 16.7766 11.0653 17.0651C11.0653 17.296 11.2197 17.5703 11.6406 17.4837C15.0079 16.3291 17.4353 13.0681 17.4353 9.21551C17.4492 4.39583 13.6469 0.5 8.97467 0.5Z"></path></g><defs><clipPath></clipPath></defs></svg>