<?xml version="1.0" standalone="no"?>
<!DOCTYPE svg PUBLIC "-//W3C//DTD SVG 20010904//EN"
 "http://www.w3.org/TR/2001/REC-SVG-20010904/DTD/svg10.dtd">
<svg version="1.0" xmlns="http://www.w3.org/2000/svg"
 width="1024.000000pt" height="1024.000000pt" viewBox="0 0 1024.000000 1024.000000"
 preserveAspectRatio="xMidYMid meet">

<rect width="100%" height="100%" fill="#000000" />

<g transform="translate(0.000000,1024.000000) scale(0.100000,-0.100000)"
fill="#FFFFFF" stroke="none">
<path d="M5069 8700 c-131 -17 -264 -111 -322 -229 -30 -61 -32 -72 -31 -166
1 -78 6 -113 23 -157 45 -115 184 -227 311 -250 114 -20 248 17 334 92 105 93
163 263 136 396 -44 214 -229 343 -451 314z m130 -234 c44 -23 99 -91 107
-131 7 -40 -8 -103 -33 -142 -24 -36 -94 -73 -139 -73 -80 0 -177 76 -193 152
-9 44 2 104 26 137 44 61 166 91 232 57z"/>
<path d="M4105 8270 c-121 -4 -304 -8 -407 -9 l-186 -1 -43 -32 c-45 -35 -60
-58 -37 -58 19 0 61 -46 83 -90 10 -19 19 -36 20 -38 1 -2 20 6 41 16 37 19
71 20 533 26 272 3 496 8 498 10 2 2 -2 44 -9 93 l-14 88 -129 1 c-72 0 -229
-3 -350 -6z"/>
<path d="M5644 8204 c-7 -43 -15 -86 -18 -95 -6 -14 43 -17 510 -23 460 -6
521 -9 547 -24 27 -16 29 -16 39 3 6 11 33 41 59 67 l49 48 -38 35 c-20 19
-53 39 -72 44 -19 5 -267 13 -550 17 l-515 7 -11 -79z"/>
<path d="M2963 8175 c-29 -8 -70 -23 -92 -34 -64 -33 -148 -117 -178 -179 -26
-53 -28 -66 -28 -178 0 -119 0 -121 37 -196 45 -91 103 -147 196 -191 62 -30
75 -32 172 -32 96 0 110 3 163 29 162 82 258 245 244 413 -14 167 -107 301
-247 354 -69 26 -201 33 -267 14z m197 -230 c34 -18 77 -64 89 -98 45 -119
-54 -266 -178 -267 -101 0 -191 103 -191 218 0 122 162 207 280 147z"/>
<path d="M7070 8174 c-71 -19 -124 -51 -182 -109 -92 -94 -137 -229 -119 -358
19 -135 82 -225 207 -297 l79 -45 110 0 c106 0 113 1 185 36 95 45 130 76 175
149 51 85 69 150 69 255 0 76 -4 99 -27 148 -14 32 -42 77 -61 100 -90 110
-280 163 -436 121z m199 -228 c36 -19 89 -80 97 -112 12 -46 -2 -122 -29 -163
-36 -55 -121 -96 -180 -87 -92 14 -157 86 -165 182 -6 75 17 125 76 164 39 25
55 30 109 30 36 0 76 -6 92 -14z"/>
<path d="M4576 7898 c-82 -62 -71 -206 20 -244 45 -19 84 -11 126 24 65 55 70
138 11 194 -58 53 -108 62 -157 26z"/>
<path d="M5548 7904 c-28 -15 -64 -73 -68 -109 -5 -46 2 -67 33 -101 61 -67
168 -53 210 29 34 66 -3 151 -80 183 -41 18 -61 17 -95 -2z"/>
<path d="M5038 7413 c-1 -203 -1 -546 0 -763 l4 -395 81 0 82 0 -1 410 c-1
226 -2 569 -3 763 l-1 352 -79 0 -79 0 -4 -367z"/>
<path d="M6079 6822 l-653 -652 57 -56 57 -57 253 248 c138 137 414 412 612
610 198 199 379 377 402 396 l42 34 -59 64 -59 64 -652 -651z"/>
<path d="M3447 7402 l-57 -58 217 -215 c120 -119 346 -339 503 -490 157 -150
354 -342 438 -425 l154 -151 48 48 c27 27 56 49 65 49 8 0 15 4 15 8 0 4 -237
242 -527 528 -580 571 -779 764 -791 764 -4 0 -33 -26 -65 -58z"/>
<path d="M7543 7393 c-29 -29 -53 -56 -53 -60 0 -4 16 -21 35 -39 l35 -32 0
-349 c0 -193 3 -424 6 -514 l7 -164 81 0 81 0 -3 539 c-3 435 -6 545 -17 567
-13 24 -107 111 -116 107 -2 0 -28 -25 -56 -55z"/>
<path d="M2588 7397 c-25 -23 -51 -51 -56 -63 -7 -13 -9 -196 -5 -556 l6 -535
84 1 84 1 -2 515 c-1 283 3 516 7 517 5 2 25 13 44 24 l35 22 -25 16 c-14 9
-46 35 -71 58 -25 24 -48 43 -50 43 -2 -1 -25 -20 -51 -43z"/>
<path d="M2995 7218 c-40 -112 -44 -142 -20 -188 47 -92 150 -94 206 -3 27 43
23 114 -10 167 l-23 36 -74 0 c-51 0 -76 -4 -79 -12z"/>
<path d="M7081 7175 c-25 -66 -26 -96 -6 -135 21 -40 53 -60 98 -60 94 0 141
89 101 190 -21 51 -38 60 -113 60 l-60 0 -20 -55z"/>
<path d="M3045 6331 c-17 -10 -44 -33 -59 -52 -24 -28 -27 -39 -23 -77 8 -74
81 -131 151 -118 63 12 116 75 116 138 0 37 -34 90 -71 110 -43 23 -76 23
-114 -1z"/>
<path d="M7086 6324 c-38 -26 -66 -75 -66 -115 0 -36 31 -88 65 -109 110 -68
254 50 200 164 -20 42 -87 86 -131 86 -16 0 -47 -12 -68 -26z"/>
<path d="M2016 6299 c-31 -24 -56 -69 -56 -100 0 -51 88 -129 146 -129 36 0
119 58 129 91 32 100 -134 205 -219 138z"/>
<path d="M8103 6300 c-41 -25 -63 -59 -70 -109 -7 -48 19 -90 71 -115 57 -27
91 -21 141 25 41 38 45 46 45 89 0 101 -103 162 -187 110z"/>
<path d="M5035 6130 c-57 -8 -136 -45 -185 -87 -45 -37 -124 -160 -139 -216
-19 -66 -10 -199 18 -270 31 -79 115 -168 194 -207 36 -17 95 -35 138 -41 65
-10 86 -10 144 5 122 31 179 70 254 175 79 112 94 295 34 422 -62 134 -154
200 -304 219 -46 5 -88 9 -94 9 -5 -1 -33 -5 -60 -9z m173 -241 c118 -57 134
-221 31 -314 -22 -20 -51 -40 -65 -45 -114 -44 -244 66 -244 206 0 55 20 95
63 128 67 51 142 60 215 25z"/>
<path d="M2466 6106 c-73 -31 -117 -66 -179 -141 -70 -88 -90 -148 -85 -265 3
-77 9 -106 32 -157 36 -78 103 -143 194 -186 61 -29 75 -32 167 -32 135 0 188
20 276 102 47 45 75 81 95 125 26 57 29 73 29 173 0 104 -2 114 -32 175 -40
81 -117 161 -191 197 -47 23 -72 28 -152 31 -83 2 -102 0 -154 -22z m239 -244
c84 -58 103 -148 49 -239 -29 -51 -66 -78 -126 -94 -42 -12 -48 -11 -91 14
-25 15 -58 47 -76 74 -25 38 -31 57 -31 102 0 78 24 119 91 154 66 35 123 32
184 -11z"/>
<path d="M7560 6116 c-92 -24 -211 -132 -258 -234 -24 -51 -27 -69 -27 -167 0
-99 3 -116 28 -169 43 -93 88 -140 171 -181 200 -99 415 -49 533 123 54 80 67
126 67 237 0 112 -25 182 -92 256 -112 125 -272 176 -422 135z m224 -250 c47
-36 67 -66 73 -115 10 -72 -46 -169 -119 -207 -35 -18 -101 -18 -136 0 -90 47
-139 175 -98 255 16 29 69 75 108 91 13 5 48 8 80 7 43 -2 64 -10 92 -31z"/>
<path d="M3120 5710 l0 -90 726 2 726 3 2 88 2 87 -728 0 -728 0 0 -90z"/>
<path d="M5654 5784 c3 -9 6 -49 6 -90 l0 -74 743 0 742 0 1 90 1 90 -750 0
c-679 0 -749 -1 -743 -16z"/>
<path d="M3052 5364 c-38 -26 -82 -95 -82 -126 0 -64 67 -138 123 -138 64 0
123 55 134 124 8 49 -13 93 -60 127 -45 33 -82 37 -115 13z"/>
<path d="M5492 5320 c-29 -32 -52 -61 -52 -64 0 -7 926 -936 1142 -1146 98
-94 182 -170 187 -168 5 1 20 19 33 38 20 29 35 41 86 67 5 2 -1304 1303
-1327 1319 -15 11 -24 5 -69 -46z"/>
<path d="M7105 5361 c-47 -28 -69 -68 -69 -128 -1 -46 3 -57 31 -84 41 -42
112 -50 161 -20 96 61 92 173 -9 230 -45 26 -75 26 -114 2z"/>
<path d="M4137 4819 c-301 -302 -600 -597 -665 -655 -64 -59 -118 -111 -120
-115 -2 -5 7 -9 19 -9 15 0 40 -19 72 -52 l48 -53 20 25 c12 14 306 312 656
663 349 351 633 639 631 641 -1 1 -28 25 -58 53 l-55 51 -548 -549z"/>
<path d="M2045 5331 c-58 -35 -70 -57 -70 -128 0 -62 2 -67 35 -94 60 -50 147
-37 205 33 49 58 20 142 -65 186 -54 27 -66 27 -105 3z"/>
<path d="M8130 5343 c-24 -9 -70 -55 -86 -85 -45 -86 37 -191 134 -173 42 8
98 59 108 100 9 35 -22 111 -56 136 -28 21 -77 31 -100 22z"/>
<path d="M2526 4648 c3 -304 7 -563 10 -576 2 -12 32 -49 65 -83 l61 -60 59
63 c32 35 59 66 59 70 0 4 -18 22 -40 39 l-40 32 0 457 c0 251 -3 491 -6 533
l-7 77 -83 0 -82 0 4 -552z"/>
<path d="M7562 4660 c-2 -386 -6 -536 -14 -539 -6 -2 -27 -18 -46 -35 l-34
-32 47 -38 c26 -22 55 -52 65 -68 l18 -29 45 48 c95 101 86 37 87 584 1 266 1
519 1 561 l-1 77 -82 3 -83 3 -3 -535z"/>
<path d="M5040 4385 l0 -800 78 3 c42 2 79 6 81 8 2 2 5 360 7 797 l3 794 -84
-1 -85 -1 0 -800z"/>
<path d="M2989 4331 c-24 -24 -29 -38 -29 -77 0 -64 19 -126 38 -119 7 3 46 5
87 5 71 0 73 1 85 30 19 46 8 135 -20 165 -19 21 -33 25 -78 25 -46 0 -58 -4
-83 -29z"/>
<path d="M7112 4325 c-38 -32 -46 -67 -29 -125 13 -45 13 -45 67 -52 30 -4 67
-10 82 -12 25 -5 28 -2 42 48 24 82 21 110 -15 140 -42 36 -106 36 -147 1z"/>
<path d="M2952 4000 c-103 -22 -223 -123 -278 -236 -51 -105 -43 -247 21 -374
32 -63 122 -145 202 -183 62 -29 77 -32 163 -32 82 1 105 5 164 30 189 78 305
313 252 510 -32 120 -119 224 -222 264 -66 26 -225 37 -302 21z m223 -243 c57
-39 85 -86 85 -145 0 -101 -98 -212 -187 -212 -32 0 -92 26 -122 53 -38 35
-71 115 -71 174 0 47 4 56 36 89 47 47 107 74 165 74 37 0 57 -7 94 -33z"/>
<path d="M7073 4000 c-187 -40 -344 -267 -313 -455 23 -141 112 -260 243 -325
96 -47 160 -58 249 -40 126 24 229 100 300 220 46 78 62 153 54 242 -14 150
-89 260 -224 325 -68 33 -85 37 -171 39 -53 2 -115 -1 -138 -6z m216 -244 c57
-40 81 -82 81 -142 -1 -88 -54 -166 -139 -201 -101 -43 -226 60 -239 196 -5
58 22 102 93 149 45 31 56 34 107 30 41 -3 67 -12 97 -32z"/>
<path d="M4585 3639 c-33 -16 -65 -72 -65 -112 0 -71 41 -116 119 -131 31 -5
38 -2 82 43 56 55 60 76 24 136 -36 62 -106 90 -160 64z"/>
<path d="M5554 3630 c-37 -24 -59 -69 -59 -124 0 -33 7 -44 39 -72 31 -27 48
-34 80 -34 46 1 66 13 102 61 77 104 -53 239 -162 169z"/>
<path d="M3653 3628 l-43 -9 0 -69 0 -69 38 -8 c20 -4 83 -8 139 -8 126 0 143
11 145 93 2 77 -6 82 -131 81 -58 -1 -125 -5 -148 -11z"/>
<path d="M6298 3629 c-48 -19 -48 -99 1 -143 17 -16 41 -20 145 -24 68 -2 140
-2 159 2 l35 6 -2 72 c-1 70 -1 72 -31 80 -47 14 -276 19 -307 7z"/>
<path d="M5025 3445 c-75 -16 -181 -79 -230 -137 -94 -111 -122 -320 -62 -451
35 -78 119 -159 204 -200 62 -29 76 -32 168 -32 95 0 104 2 178 37 95 46 173
122 218 214 30 61 31 66 27 171 -6 141 -30 203 -111 290 -104 111 -220 143
-392 108z m153 -215 c27 0 112 -92 123 -133 29 -108 -47 -228 -159 -252 -40
-8 -121 17 -150 48 -52 56 -75 156 -51 225 20 59 143 129 204 116 11 -2 26 -4
33 -4z"/>
<path d="M3492 3250 c-24 -25 -51 -56 -60 -69 -15 -22 -14 -24 9 -42 13 -10
38 -21 54 -23 17 -3 269 -7 562 -11 l532 -5 11 57 c6 32 14 68 17 80 4 20 0
22 -59 27 -227 20 -597 36 -793 34 l-230 -3 -43 -45z"/>
<path d="M6105 3289 c-82 -5 -224 -12 -315 -16 -139 -7 -164 -10 -162 -23 2
-8 11 -50 19 -92 14 -70 18 -78 39 -78 13 0 101 6 196 14 95 8 337 18 538 21
200 4 375 11 387 16 42 16 37 35 -28 98 l-62 60 -231 4 c-127 2 -298 0 -381
-4z"/>
<path d="M7632 3183 c-48 -23 -74 -65 -74 -118 0 -58 28 -105 75 -129 53 -25
94 -15 142 34 33 34 39 47 39 78 -2 80 -62 152 -124 152 -14 0 -40 -8 -58 -17z"/>
<path d="M2524 3180 c-27 -11 -72 -65 -80 -96 -10 -41 3 -104 27 -130 54 -57
137 -53 204 11 30 28 35 39 35 77 0 97 -101 172 -186 138z"/>
<path d="M2993 3028 c-6 -7 -14 -44 -17 -83 -3 -38 -9 -93 -12 -121 -5 -44 -3
-54 20 -82 52 -60 118 -62 178 -5 37 35 44 79 22 129 -10 21 -20 68 -23 104
l-6 65 -76 3 c-53 2 -79 -1 -86 -10z"/>
<path d="M7100 3020 c0 -13 -10 -62 -22 -110 -25 -101 -21 -129 27 -177 45
-45 99 -46 148 -3 56 48 63 78 38 152 -12 34 -21 79 -21 99 0 21 -4 40 -9 43
-5 4 -43 9 -85 13 -74 6 -76 5 -76 -17z"/>
<path d="M4571 2638 c-76 -21 -111 -66 -111 -140 0 -73 50 -118 131 -118 97 0
185 118 155 208 -9 27 -74 62 -113 61 -15 0 -43 -5 -62 -11z"/>
<path d="M5551 2598 c-16 -18 -37 -49 -47 -70 -16 -35 -16 -40 0 -83 22 -56
64 -87 127 -93 86 -8 149 51 149 139 0 50 -30 103 -70 124 -16 8 -52 15 -79
15 -43 0 -54 -4 -80 -32z"/>
<path d="M5040 2402 c0 -48 -5 -125 -10 -171 -12 -94 -3 -141 33 -166 46 -32
125 -9 147 44 9 23 10 45 1 94 -6 35 -11 114 -11 175 l0 112 -80 0 -80 0 0
-88z"/>
</g>
</svg>
