<?xml version="1.0" standalone="no"?>
<!DOCTYPE svg PUBLIC "-//W3C//DTD SVG 20010904//EN"
 "http://www.w3.org/TR/2001/REC-SVG-20010904/DTD/svg10.dtd">
<svg version="1.0" xmlns="http://www.w3.org/2000/svg"
 width="1024.000000pt" height="1024.000000pt" viewBox="0 0 1024.000000 1024.000000"
 preserveAspectRatio="xMidYMid meet">

<rect width="100%" height="100%" fill="#000000" />

<g transform="translate(0.000000,1024.000000) scale(0.100000,-0.100000)"
fill="#FFFFFF" stroke="none">
<path d="M6823 9385 c-39 -17 -53 -42 -53 -95 0 -61 26 -106 87 -152 29 -22
53 -43 53 -47 0 -11 -101 -73 -255 -156 -370 -202 -573 -316 -890 -500 -187
-109 -452 -262 -590 -340 -137 -78 -264 -150 -281 -160 l-31 -19 -49 31 c-113
72 -234 71 -330 -2 -18 -14 -40 -25 -50 -25 -24 0 -127 48 -214 99 -41 24
-164 91 -274 148 -109 58 -233 126 -275 152 l-76 47 -12 62 c-24 118 -89 206
-190 258 -51 26 -68 29 -148 29 -69 0 -99 -5 -130 -20 -50 -24 -129 -104 -157
-158 -30 -60 -36 -169 -13 -254 l18 -66 -59 -56 c-330 -311 -764 -730 -959
-926 -325 -327 -560 -551 -620 -592 -27 -18 -80 -42 -116 -53 -52 -16 -75 -29
-103 -61 -65 -71 -69 -117 -15 -196 55 -80 119 -109 177 -79 41 21 1021 964
1502 1446 112 112 314 338 321 359 3 7 32 1 79 -15 99 -35 157 -29 262 24 l78
40 47 -37 c74 -56 455 -254 601 -312 140 -56 169 -74 175 -112 9 -58 66 -182
103 -225 76 -89 210 -121 304 -73 117 61 183 150 198 266 l7 59 170 86 c160
81 291 155 765 430 107 62 238 138 290 168 52 30 147 85 210 122 63 36 196
111 295 165 99 54 231 129 293 168 63 38 117 65 121 61 4 -5 20 -40 35 -77 21
-49 40 -77 70 -101 112 -91 148 -78 210 76 19 48 47 110 61 138 45 88 145 358
145 390 0 19 -9 40 -23 54 -28 28 -81 32 -492 40 -189 4 -247 2 -272 -9z
m-3507 -887 c39 -27 74 -85 74 -123 0 -70 -65 -135 -136 -135 -45 0 -70 18
-108 75 -40 61 -36 104 17 160 37 38 49 45 82 45 24 0 51 -9 71 -22z m1374
-703 c48 -25 70 -62 70 -118 0 -44 -4 -53 -36 -83 -41 -39 -93 -45 -145 -19
-34 18 -69 69 -69 103 0 43 37 99 77 115 48 20 67 21 103 2z"/>
<path d="M8019 8740 c-117 -18 -236 -85 -327 -184 -90 -100 -136 -230 -136
-386 1 -84 5 -107 37 -193 68 -186 131 -264 271 -332 150 -73 281 -80 471 -23
98 29 132 48 198 115 130 130 203 368 163 537 -19 79 -82 206 -131 263 -39 46
-164 135 -227 162 -85 36 -228 54 -319 41z m131 -150 c19 -10 40 -59 40 -95 0
-17 10 -26 45 -39 63 -25 97 -68 93 -120 -3 -40 -4 -41 -44 -44 -38 -3 -43 0
-63 33 -13 23 -37 43 -64 55 -65 29 -119 8 -132 -51 -11 -48 15 -74 133 -130
59 -28 119 -62 134 -76 66 -63 58 -163 -18 -233 -42 -38 -54 -44 -81 -41 -9 1
-13 -12 -13 -36 0 -21 -4 -43 -8 -50 -10 -16 -57 -26 -87 -19 -22 6 -25 12
-25 51 l0 45 -42 0 c-37 1 -47 5 -70 37 -32 41 -35 69 -12 101 20 29 42 28 77
-5 24 -24 36 -28 83 -27 64 2 104 30 104 74 0 29 -42 76 -59 65 -6 -3 -11 -2
-11 2 0 5 -25 17 -56 28 -74 25 -138 82 -158 142 -41 119 0 205 104 222 30 5
35 10 38 36 5 55 12 73 30 78 29 8 43 7 62 -3z"/>
<path d="M8490 7525 c-30 -15 -95 -40 -145 -57 -80 -27 -104 -31 -210 -32
-133 -1 -215 15 -345 67 -89 35 -149 34 -269 -7 -101 -34 -160 -73 -193 -126
l-28 -45 8 -197 7 -197 40 -42 c60 -62 120 -97 225 -129 131 -40 189 -49 382
-60 189 -11 479 1 606 25 144 28 281 87 338 147 l29 29 3 167 c1 92 3 192 5
223 2 48 -2 61 -27 93 -36 48 -99 88 -199 127 -113 43 -159 46 -227 14z m212
-181 c52 -9 78 -36 78 -83 0 -75 -56 -115 -217 -156 -221 -55 -420 -67 -680
-40 -164 17 -248 36 -316 73 -62 33 -72 54 -68 139 1 27 39 48 99 56 35 4 48
1 70 -17 41 -35 60 -42 142 -57 95 -18 407 -17 510 1 92 16 173 43 207 70 27
21 97 27 175 14z"/>
<path d="M6004 7375 c-76 -21 -213 -89 -262 -130 -46 -40 -117 -135 -151 -203
-32 -63 -54 -186 -48 -262 12 -145 84 -301 185 -404 42 -42 75 -64 148 -96
162 -71 274 -73 466 -10 109 37 149 61 219 137 54 59 108 166 145 290 20 65
17 170 -5 242 -24 79 -100 206 -155 262 -69 70 -213 145 -326 169 -110 23
-146 24 -216 5z m172 -201 c8 -18 14 -42 14 -53 0 -12 9 -22 23 -26 55 -17 87
-39 101 -70 30 -62 19 -96 -35 -110 -23 -6 -29 -1 -52 38 -31 52 -84 82 -125
72 -44 -11 -72 -44 -72 -85 0 -47 26 -72 105 -101 125 -46 205 -125 205 -204
0 -60 -69 -143 -132 -159 -25 -6 -28 -11 -28 -47 0 -46 -22 -60 -74 -50 -28 6
-31 11 -34 48 -3 43 -16 53 -70 53 -60 0 -114 77 -90 128 18 36 51 39 89 8 33
-28 86 -46 136 -46 54 0 93 71 61 113 -7 9 -61 39 -120 67 -114 54 -150 86
-168 148 -29 106 12 186 101 198 44 6 48 9 54 38 12 58 17 67 38 75 34 13 58
1 73 -35z"/>
<path d="M7315 6646 c-4 -19 -5 -102 -3 -185 l3 -151 39 -32 c142 -119 156
-124 406 -164 300 -47 531 -40 865 27 167 34 272 97 295 179 5 19 10 108 10
198 0 188 3 185 -92 120 -74 -50 -156 -79 -320 -116 -117 -25 -136 -27 -383
-26 -223 1 -278 4 -385 23 -159 28 -327 95 -370 145 -7 9 -23 16 -36 16 -18 0
-24 -7 -29 -34z"/>
<path d="M4025 6640 c-106 -21 -260 -111 -332 -194 -80 -93 -133 -249 -133
-391 0 -72 5 -98 44 -203 51 -142 92 -198 194 -266 83 -55 166 -83 268 -92 69
-6 94 -2 199 25 152 40 217 71 281 137 62 63 138 206 154 291 7 35 10 104 8
160 -4 83 -9 108 -36 166 -38 83 -106 180 -160 229 -123 111 -328 169 -487
138z m139 -179 c9 -10 21 -34 27 -54 8 -30 15 -36 52 -46 57 -14 80 -41 81
-94 1 -39 -1 -42 -27 -45 -20 -3 -33 4 -51 26 -77 90 -223 71 -201 -27 8 -39
25 -53 130 -105 137 -69 165 -100 165 -184 0 -83 -40 -141 -117 -167 -37 -13
-38 -15 -35 -55 5 -51 -11 -70 -57 -70 -48 0 -61 14 -61 67 0 42 -1 43 -34 43
-73 0 -134 77 -108 135 15 32 59 33 97 3 65 -51 145 -39 181 28 17 30 17 34 1
58 -10 14 -23 26 -30 26 -7 0 -59 24 -116 53 -121 60 -141 86 -141 175 0 92
45 152 115 152 21 0 25 5 25 28 0 63 65 96 104 53z"/>
<path d="M6460 6141 c-14 -5 -53 -20 -87 -35 -133 -56 -268 -56 -496 -1 -56
14 -124 25 -150 25 -117 0 -303 -67 -364 -131 -60 -64 -64 -87 -52 -281 6 -95
12 -182 15 -193 6 -33 146 -125 237 -156 152 -51 575 -68 872 -34 218 25 378
87 466 182 25 26 27 36 34 168 12 221 11 238 -14 278 -34 55 -125 110 -251
151 -110 35 -161 42 -210 27z m245 -212 c49 -13 65 -32 65 -77 0 -54 -59 -105
-160 -136 -200 -64 -422 -92 -592 -76 -277 26 -414 58 -469 107 -74 67 -70
141 8 162 52 15 80 14 107 -4 28 -19 177 -42 361 -56 191 -15 292 -3 422 49
106 43 181 52 258 31z"/>
<path d="M7321 6052 c-12 -22 -15 -281 -5 -317 7 -23 145 -128 196 -150 57
-23 192 -54 326 -75 213 -33 585 -23 772 22 76 18 202 84 260 136 l54 49 4
166 4 167 -24 0 c-14 0 -36 -8 -49 -19 -106 -82 -354 -147 -609 -158 -319 -13
-625 43 -793 146 -86 52 -121 61 -136 33z"/>
<path d="M7317 5483 c-11 -11 -8 -283 3 -304 14 -25 193 -115 268 -134 31 -9
134 -26 227 -40 204 -30 479 -34 672 -10 217 27 424 111 437 178 3 12 7 86 10
165 l5 142 -26 0 c-13 0 -38 -9 -54 -21 -268 -190 -1012 -197 -1408 -13 -91
43 -121 51 -134 37z"/>
<path d="M4530 5433 c-14 -3 -60 -20 -102 -39 -110 -49 -203 -67 -309 -60
-115 9 -218 29 -305 60 -94 34 -157 33 -262 -3 -107 -37 -184 -88 -216 -143
-25 -43 -25 -44 -19 -228 l6 -184 46 -49 c54 -58 102 -84 231 -125 235 -75
432 -88 745 -47 289 37 430 85 546 185 l46 39 6 133 c3 73 10 149 17 168 14
47 3 104 -27 141 -31 36 -125 85 -246 128 -86 30 -105 33 -157 24z m208 -219
c28 -11 32 -17 32 -51 0 -47 -29 -97 -71 -122 -66 -41 -326 -90 -514 -98 -216
-9 -551 42 -625 96 -40 29 -66 84 -55 117 23 64 158 93 220 47 38 -29 155 -59
286 -73 154 -17 290 0 410 51 134 57 232 67 317 33z"/>
<path d="M6890 5323 c-8 -3 -29 -16 -45 -29 -89 -67 -275 -129 -485 -161 -180
-27 -551 -2 -761 52 -35 9 -101 36 -146 61 -96 51 -120 54 -133 18 -11 -28
-13 -221 -3 -302 6 -50 8 -54 52 -79 25 -14 79 -48 119 -75 134 -91 211 -106
612 -114 308 -7 414 3 568 54 74 24 95 36 165 98 44 40 83 78 87 85 4 8 9 99
11 204 4 200 3 205 -41 188z"/>
<path d="M2051 5264 c-29 -8 -93 -35 -141 -60 -180 -93 -304 -264 -317 -439
-9 -111 12 -204 70 -318 70 -137 117 -185 245 -247 126 -62 180 -74 297 -68
76 4 103 11 177 43 161 70 285 192 350 345 27 65 32 90 36 181 4 97 2 111 -23
175 -61 152 -155 254 -305 329 -138 70 -274 90 -389 59z m149 -169 c21 -11 31
-25 36 -49 5 -28 12 -36 35 -41 60 -13 128 -99 113 -140 -8 -19 -55 -45 -82
-45 -13 0 -22 9 -26 25 -3 13 -22 40 -41 60 -60 59 -132 46 -150 -28 -11 -43
15 -71 112 -118 154 -76 228 -172 189 -247 -20 -38 -90 -98 -133 -114 -32 -12
-33 -14 -33 -65 0 -48 -2 -53 -25 -59 -39 -10 -75 19 -75 60 0 30 -4 35 -31
41 -73 16 -129 71 -129 128 0 56 40 60 120 11 48 -30 64 -35 92 -29 52 10 76
25 89 57 16 39 -5 61 -100 105 -142 65 -178 103 -202 211 -17 84 21 138 114
157 21 4 27 11 27 30 0 28 32 65 55 65 9 0 29 -7 45 -15z"/>
<path d="M8890 4953 c-8 -3 -55 -21 -105 -40 -256 -99 -583 -122 -977 -69
-148 20 -226 38 -330 77 -54 19 -96 29 -122 27 l-41 -3 -3 -110 c-1 -73 2
-118 10 -134 18 -33 122 -93 215 -124 43 -14 148 -40 233 -58 145 -31 167 -33
350 -33 285 0 543 41 700 112 104 47 105 50 105 215 0 139 -3 152 -35 140z"/>
<path d="M5350 4670 c0 -6 0 -12 0 -15 0 -3 -8 -20 -17 -38 -16 -28 -18 -60
-18 -243 0 -164 3 -215 14 -227 19 -24 150 -94 217 -117 103 -36 280 -54 509
-53 116 0 246 6 290 12 44 6 130 15 190 21 61 5 135 16 165 24 57 15 187 85
213 114 12 14 16 62 19 259 1 133 0 245 -5 249 -4 4 -41 -16 -83 -46 -83 -57
-187 -111 -250 -129 -142 -41 -455 -52 -709 -26 -256 26 -300 41 -410 140 -70
63 -125 95 -125 75z"/>
<path d="M4822 4555 c-119 -70 -176 -89 -348 -114 -105 -16 -194 -21 -355 -22
-376 -1 -652 58 -722 153 -12 16 -29 28 -39 28 -40 0 -50 -72 -38 -278 7 -125
12 -157 26 -173 10 -11 55 -38 100 -60 67 -34 106 -45 220 -64 290 -49 489
-57 734 -30 259 29 317 42 426 94 56 27 104 52 106 57 3 5 9 111 13 237 6 217
6 227 -12 227 -10 0 -60 -25 -111 -55z"/>
<path d="M7328 4473 c-16 -4 -18 -20 -18 -153 0 -82 3 -155 6 -164 7 -17 94
-85 141 -109 120 -63 373 -101 658 -100 373 2 550 37 740 147 33 20 63 43 67
53 3 10 7 87 7 171 1 115 -2 152 -11 152 -7 0 -53 -20 -103 -44 -185 -91 -369
-126 -666 -126 -289 0 -465 35 -661 131 -96 46 -120 53 -160 42z"/>
<path d="M2455 4009 c-44 -15 -119 -35 -167 -45 -86 -17 -87 -17 -241 10 -86
14 -182 26 -214 26 -112 0 -362 -83 -430 -143 -67 -59 -72 -87 -62 -312 9
-202 -2 -181 124 -245 97 -49 184 -71 425 -106 160 -23 206 -26 340 -21 85 3
201 13 257 22 130 20 340 77 407 110 77 38 86 54 86 143 0 42 5 124 12 182 6
58 8 122 4 143 -12 63 -73 114 -233 195 -164 83 -181 86 -308 41z m315 -237
c32 -15 35 -22 38 -64 3 -40 -1 -51 -28 -81 -31 -35 -138 -84 -234 -107 -67
-16 -336 -50 -398 -50 -144 0 -453 57 -543 100 -44 22 -85 74 -85 109 0 68 50
93 196 99 l111 4 13 -31 c10 -25 22 -34 64 -46 227 -65 397 -60 531 16 118 66
261 88 335 51z"/>
<path d="M4815 3899 c-206 -83 -369 -105 -702 -96 -303 8 -469 29 -618 77
-139 46 -143 46 -161 23 -17 -23 -19 -261 -3 -297 20 -42 118 -103 210 -130
161 -46 443 -69 692 -56 394 22 559 59 670 153 l38 32 6 168 c7 197 19 186
-132 126z"/>
<path d="M5326 3914 c-13 -12 -16 -40 -16 -140 0 -170 4 -179 118 -237 153
-80 336 -109 677 -110 144 -1 231 5 359 22 197 26 262 44 354 99 107 64 106
62 113 226 3 77 2 145 -2 150 -5 6 -46 -5 -101 -27 -176 -68 -230 -81 -403
-97 -217 -20 -543 -9 -749 26 -50 8 -138 34 -203 59 -63 25 -118 45 -123 45
-5 0 -16 -7 -24 -16z"/>
<path d="M7310 3900 c-10 -18 -6 -200 6 -257 2 -12 38 -51 79 -86 69 -59 84
-67 160 -86 273 -68 819 -68 1113 0 100 23 144 44 207 101 l48 44 8 145 c3 79
5 148 2 152 -6 10 -27 3 -149 -49 -219 -92 -555 -126 -879 -89 -242 28 -313
44 -437 96 -64 27 -123 49 -132 49 -8 0 -20 -9 -26 -20z"/>
<path d="M6805 3344 c-121 -50 -223 -73 -405 -90 -142 -14 -198 -15 -405 -5
-294 15 -351 23 -489 72 -113 40 -163 48 -184 27 -17 -17 -16 -244 1 -278 16
-31 106 -93 174 -119 61 -24 174 -44 373 -67 176 -20 332 -15 605 20 196 25
283 48 379 102 74 42 79 55 84 225 l4 149 -28 -1 c-16 -1 -65 -16 -109 -35z"/>
<path d="M4885 3352 c-14 -12 -153 -68 -200 -81 -49 -13 -202 -27 -436 -41
-154 -9 -199 -8 -370 10 -237 25 -283 34 -379 72 -44 18 -96 31 -125 32 l-50
1 -3 -110 c-4 -142 5 -171 65 -217 69 -51 121 -75 226 -103 130 -34 282 -49
502 -49 162 0 214 4 350 28 247 42 426 108 465 170 9 14 15 67 18 159 l5 137
-30 0 c-16 0 -33 -4 -38 -8z"/>
<path d="M7313 3348 c-12 -20 -3 -271 11 -287 6 -8 41 -34 78 -58 72 -46 172
-78 348 -109 188 -34 675 -19 912 27 79 16 239 97 255 129 8 16 13 75 13 169
l0 143 -27 -5 c-16 -3 -80 -23 -143 -46 -156 -55 -309 -74 -615 -74 -320 0
-477 18 -650 78 -139 47 -169 53 -182 33z"/>
<path d="M1357 3163 c-12 -11 -8 -532 4 -554 18 -34 165 -97 290 -124 62 -14
164 -36 224 -50 224 -51 343 -56 520 -25 61 11 170 29 243 40 73 12 151 28
175 36 66 23 144 81 156 116 7 19 11 131 11 289 l0 259 -25 0 c-14 0 -42 -8
-63 -19 -136 -69 -308 -105 -580 -123 -182 -12 -189 -12 -371 15 -247 36 -382
68 -475 111 -77 36 -97 42 -109 29z m598 -308 c152 -17 513 -20 634 -5 107 14
124 0 37 -28 -103 -34 -326 -62 -492 -62 -259 0 -624 70 -541 103 26 11 238 6
362 -8z"/>
<path d="M4825 2820 c-179 -86 -341 -120 -650 -136 -246 -13 -581 45 -749 128
-49 25 -63 28 -83 19 l-24 -11 3 -165 3 -164 45 -46 c25 -26 58 -54 74 -62 82
-43 270 -78 466 -88 134 -7 529 9 645 25 168 24 280 68 346 136 l44 45 3 155
c4 172 0 204 -26 203 -9 0 -53 -18 -97 -39z"/>
<path d="M6860 2824 c-95 -45 -281 -101 -385 -115 -128 -18 -556 -19 -680 -1
-112 16 -281 65 -358 104 -37 18 -70 28 -90 26 l-32 -3 -3 -145 c-3 -167 -1
-183 36 -217 111 -105 236 -140 542 -154 118 -5 258 -7 310 -4 207 12 449 38
519 56 130 33 204 92 216 172 9 64 2 300 -10 304 -5 1 -35 -9 -65 -23z"/>
<path d="M7317 2833 c-4 -3 -7 -76 -7 -162 l0 -155 58 -54 c93 -88 144 -104
442 -141 138 -18 349 -13 615 14 328 33 402 53 468 123 38 39 46 83 47 230 0
120 0 122 -23 122 -12 0 -101 -23 -197 -50 -217 -62 -338 -75 -655 -67 -293 7
-470 39 -642 117 -65 30 -94 36 -106 23z"/>
<path d="M1045 2176 c-14 -14 -25 -35 -25 -47 0 -47 51 -99 98 -99 47 0 124
87 103 116 -10 15 -60 34 -87 34 -14 0 -34 5 -45 10 -15 9 -24 6 -44 -14z"/>
<path d="M2035 1640 c-804 -4 -1055 -8 -1071 -17 -42 -24 -74 -73 -74 -111 0
-42 37 -104 73 -124 17 -9 896 -11 4127 -9 2318 1 4112 7 4121 11 32 17 78 80
85 115 7 40 -15 86 -57 117 -25 19 -88 19 -3090 21 -1685 1 -3536 0 -4114 -3z"/>
</g>
</svg>
